<svg width="512" height="512" viewBox="0 0 512 512" fill="none" xmlns="http://www.w3.org/2000/svg">
<g clip-path="url(#clip0)">
<path d="M181.022 142.59L172.363 145.728C158.999 150.574 149.029 162.264 146.342 176.245L143.404 191.641C141.938 199.267 143.934 207.077 148.883 213.066C153.834 219.061 161.134 222.499 168.908 222.499H243.965C251.679 222.499 258.942 219.106 263.892 213.19C268.838 207.279 270.896 199.54 269.538 191.957L266.798 176.642C264.259 162.441 254.256 150.561 240.69 145.638L231.51 142.311V128.781C231.51 128.401 231.473 128.031 231.418 127.666C238.115 120.848 241.951 111.551 241.951 102.039V81.88C241.951 62.202 225.941 46.193 206.262 46.193C186.583 46.193 170.57 62.202 170.57 81.88V102.667C170.57 112.445 174.602 121.372 181.085 127.855C181.047 128.159 181.022 128.466 181.022 128.78V142.59ZM252.03 179.282L254.77 194.599C255.344 197.8 254.475 201.067 252.386 203.563C250.294 206.063 247.224 207.498 243.963 207.498H168.906C165.621 207.498 162.537 206.046 160.445 203.513C158.357 200.985 157.514 197.69 158.134 194.463L161.072 179.067C162.765 170.255 169.051 162.884 177.472 159.831L183.144 157.776C183.286 157.922 183.429 158.069 183.583 158.204C190.046 163.855 198.153 166.681 206.265 166.68C214.367 166.68 222.472 163.86 228.936 158.22C229.169 158.017 229.383 157.798 229.587 157.57L235.57 159.739C244.124 162.841 250.43 170.329 252.03 179.282ZM185.57 81.88C185.57 70.474 194.851 61.193 206.259 61.193C215.887 61.193 223.977 67.813 226.274 76.733C225.31 77.204 224.321 77.649 223.308 78.054C214.086 81.746 206.637 81.256 204.508 79.764C201.116 77.386 196.44 78.206 194.061 81.598C191.683 84.99 192.504 89.666 195.895 92.045C199.558 94.614 204.53 95.898 210.204 95.898C215.359 95.898 221.094 94.827 226.949 92.708V102.037C226.949 107.77 224.578 113.384 220.443 117.439C218.529 119.317 216.336 120.772 213.981 121.776C213.816 121.839 213.654 121.907 213.495 121.981C211.076 122.938 208.492 123.419 205.851 123.35C194.667 123.135 185.57 113.856 185.57 102.666V81.88ZM205.563 138.349C205.792 138.353 206.019 138.355 206.248 138.355C209.767 138.355 213.215 137.826 216.509 136.811V148.81C210.258 152.664 202.267 152.662 196.024 148.804V136.833C199.058 137.752 202.255 138.285 205.563 138.349V138.349Z" fill="#7B1C73"/>
<path d="M88.264 350.904H321.834C325.977 350.904 329.334 347.547 329.334 343.404C329.334 339.261 325.977 335.904 321.834 335.904H88.264C84.121 335.904 80.764 339.261 80.764 343.404C80.764 347.547 84.121 350.904 88.264 350.904V350.904Z" fill="#7B1C73"/>
<path d="M88.264 391.345H321.834C325.977 391.345 329.334 387.988 329.334 383.845C329.334 379.702 325.977 376.345 321.834 376.345H88.264C84.121 376.345 80.764 379.702 80.764 383.845C80.764 387.988 84.121 391.345 88.264 391.345V391.345Z" fill="#7B1C73"/>
<path d="M88.264 431.784H321.834C325.977 431.784 329.334 428.427 329.334 424.284C329.334 420.141 325.977 416.784 321.834 416.784H88.264C84.121 416.784 80.764 420.141 80.764 424.284C80.764 428.427 84.121 431.784 88.264 431.784V431.784Z" fill="#7B1C73"/>
<path d="M88.264 472.225H321.834C325.977 472.225 329.334 468.868 329.334 464.725C329.334 460.582 325.977 457.225 321.834 457.225H88.264C84.121 457.225 80.764 460.582 80.764 464.725C80.764 468.868 84.121 472.225 88.264 472.225V472.225Z" fill="#7B1C73"/>
<path d="M80.764 262.524C80.764 266.667 84.121 270.024 88.264 270.024H321.834C325.977 270.024 329.334 266.667 329.334 262.524C329.334 258.381 325.977 255.024 321.834 255.024H88.264C84.121 255.024 80.764 258.382 80.764 262.524V262.524Z" fill="#7B1C73"/>
<path d="M88.264 310.464H321.834C325.977 310.464 329.334 307.107 329.334 302.964C329.334 298.821 325.977 295.464 321.834 295.464H88.264C84.121 295.464 80.764 298.821 80.764 302.964C80.764 307.107 84.121 310.464 88.264 310.464V310.464Z" fill="#7B1C73"/>
<path d="M60.569 350.932C64.727 350.932 68.098 347.562 68.098 343.404C68.098 339.247 64.727 335.876 60.569 335.876C56.411 335.876 53.041 339.246 53.041 343.404C53.041 347.562 56.412 350.932 60.569 350.932Z" fill="#7B1C73"/>
<path d="M60.569 270.052C64.727 270.052 68.098 266.682 68.098 262.524C68.098 258.366 64.727 254.996 60.569 254.996C56.411 254.996 53.041 258.366 53.041 262.524C53.041 266.682 56.412 270.052 60.569 270.052Z" fill="#7B1C73"/>
<path d="M60.569 310.492C64.727 310.492 68.098 307.122 68.098 302.964C68.098 298.806 64.727 295.436 60.569 295.436C56.411 295.436 53.041 298.806 53.041 302.964C53.041 307.122 56.412 310.492 60.569 310.492Z" fill="#7B1C73"/>
<path d="M60.569 391.372C64.727 391.372 68.098 388.002 68.098 383.844C68.098 379.686 64.727 376.316 60.569 376.316C56.411 376.316 53.041 379.686 53.041 383.844C53.041 388.002 56.412 391.372 60.569 391.372Z" fill="#7B1C73"/>
<path d="M60.569 431.813C64.727 431.813 68.098 428.443 68.098 424.285C68.098 420.127 64.727 416.757 60.569 416.757C56.411 416.757 53.041 420.127 53.041 424.285C53.041 428.442 56.412 431.813 60.569 431.813Z" fill="#7B1C73"/>
<path d="M60.569 472.253C64.727 472.253 68.098 468.883 68.098 464.725C68.098 460.568 64.727 457.197 60.569 457.197C56.411 457.197 53.041 460.567 53.041 464.725C53.041 468.882 56.412 472.253 60.569 472.253Z" fill="#7B1C73"/>
<path d="M485.63 118.121C482.604 114.291 479.744 110.672 478.361 107.338C476.869 103.739 476.281 98.984 475.659 93.948C474.568 85.126 473.332 75.127 466.354 68.15C459.376 61.173 449.376 59.937 440.554 58.846C435.517 58.224 430.76 57.636 427.161 56.144C423.826 54.761 420.208 51.903 416.377 48.876C411.106 44.711 405.309 40.138 398.455 38.063V35.794C398.456 16.058 382.397 0 362.658 0H50.214C30.475 0 14.416 16.058 14.416 35.795V64.744C14.416 68.887 17.773 72.244 21.916 72.244C26.059 72.244 29.416 68.887 29.416 64.744V35.795C29.416 24.328 38.746 15 50.214 15H362.658C374.126 15 383.456 24.328 383.456 35.795V38.065C376.604 40.141 370.809 44.712 365.538 48.877C361.707 51.903 358.089 54.762 354.755 56.145C351.156 57.636 346.399 58.224 341.362 58.847C332.54 59.937 322.541 61.173 315.562 68.15C308.583 75.128 307.347 85.127 306.256 93.949C305.634 98.984 305.046 103.74 303.554 107.339C302.171 110.673 299.312 114.292 296.285 118.122C290.681 125.213 284.331 133.25 284.331 143.539C284.331 153.828 290.682 161.865 296.285 168.956C299.311 172.786 302.171 176.405 303.554 179.739C305.046 183.338 305.634 188.093 306.256 193.13C307.347 201.951 308.583 211.95 315.561 218.927C322.539 225.905 332.539 227.14 341.361 228.231C343.991 228.556 346.54 228.875 348.893 229.315V342.682C348.893 347.125 351.373 351.093 355.366 353.037C359.358 354.984 364.011 354.49 367.512 351.749L383.455 339.266V476.206C383.455 487.673 374.125 497.001 362.657 497.001H50.214C38.746 497.001 29.416 487.673 29.416 476.206V97.771C29.416 93.628 26.059 90.271 21.916 90.271C17.773 90.271 14.416 93.628 14.416 97.771V476.205C14.416 495.942 30.475 512 50.214 512H362.658C382.397 512 398.456 495.942 398.456 476.205V339.265L414.399 351.747C416.48 353.377 418.97 354.213 421.488 354.213C423.204 354.213 424.932 353.824 426.552 353.035C430.546 351.091 433.028 347.123 433.028 342.681V258.984C433.028 254.841 429.671 251.484 425.528 251.484C421.385 251.484 418.028 254.841 418.028 258.984V335.539L398.091 319.93C396.076 318.335 393.542 317.456 390.955 317.456C388.368 317.456 385.834 318.335 383.851 319.904L363.892 335.531V236.906C364.436 237.332 364.983 237.763 365.537 238.2C372.629 243.804 380.667 250.153 390.957 250.153C401.246 250.153 409.284 243.803 416.376 238.201C420.207 235.175 423.826 232.315 427.16 230.932C430.759 229.441 435.516 228.853 440.553 228.23C449.375 227.14 459.374 225.904 466.354 218.927C473.331 211.949 474.567 201.95 475.658 193.129C476.281 188.093 476.869 183.337 478.361 179.738C479.744 176.404 482.603 172.785 485.63 168.955C491.234 161.864 497.584 153.827 497.584 143.538C497.584 133.249 491.233 125.212 485.63 118.121V118.121ZM473.861 159.655C470.333 164.12 466.685 168.736 464.506 173.992C462.233 179.472 461.49 185.479 460.772 191.288C459.901 198.334 459.079 204.989 455.749 208.319C452.418 211.649 445.762 212.471 438.715 213.342C432.905 214.06 426.899 214.802 421.417 217.075C416.161 219.254 411.545 222.901 407.08 226.429C401.401 230.914 396.038 235.152 390.959 235.152C385.88 235.152 380.517 230.915 374.838 226.429C370.373 222.902 365.757 219.254 360.501 217.075C360.139 216.925 358.883 216.447 358.612 216.363C353.655 214.639 348.352 213.978 343.202 213.342C336.155 212.471 329.499 211.648 326.168 208.318C322.839 204.989 322.016 198.334 321.145 191.289C320.427 185.479 319.685 179.474 317.412 173.992C315.232 168.736 311.585 164.12 308.057 159.655C303.572 153.977 299.334 148.615 299.334 143.538C299.334 138.461 303.571 133.099 308.057 127.421C311.585 122.956 315.233 118.34 317.412 113.084C319.685 107.604 320.428 101.597 321.145 95.788C322.016 88.742 322.839 82.087 326.169 78.757C329.5 75.427 336.156 74.605 343.203 73.734C349.013 73.016 355.019 72.274 360.501 70.001C365.757 67.822 370.373 64.175 374.838 60.647C380.505 56.17 385.859 51.942 390.929 51.926C390.938 51.926 390.948 51.927 390.957 51.927C390.967 51.927 390.977 51.926 390.987 51.926C396.058 51.941 401.412 56.17 407.08 60.647C411.545 64.174 416.161 67.822 421.417 70.001C426.898 72.274 432.906 73.017 438.716 73.734C445.763 74.605 452.419 75.428 455.749 78.758C459.079 82.088 459.902 88.742 460.773 95.788C461.491 101.597 462.233 107.603 464.506 113.084C466.686 118.34 470.333 122.956 473.861 127.421C478.346 133.099 482.584 138.461 482.584 143.538C482.584 148.615 478.347 153.978 473.861 159.655V159.655Z" fill="#7B1C73"/>
<path d="M439.109 119.704L413.587 112.483L398.83 90.443C397.067 87.811 394.125 86.241 390.958 86.241C387.791 86.241 384.848 87.812 383.086 90.443L368.329 112.483L342.805 119.705C339.757 120.568 337.353 122.883 336.375 125.895C335.397 128.907 335.983 132.192 337.941 134.678L354.344 155.521L353.326 182.018C353.203 185.184 354.659 188.186 357.222 190.049C358.867 191.244 360.816 191.862 362.787 191.862C363.889 191.862 364.997 191.669 366.061 191.277L390.956 182.119L415.849 191.276C418.822 192.372 422.125 191.912 424.688 190.051C427.251 188.19 428.709 185.189 428.587 182.022L427.569 155.52L443.973 134.677C445.931 132.188 446.516 128.905 445.537 125.893C444.562 122.881 442.158 120.567 439.109 119.704V119.704ZM414.522 147.847C413.136 149.611 412.419 151.817 412.504 154.066L413.282 174.35L394.229 167.341C392.118 166.564 389.793 166.565 387.686 167.34L368.631 174.35L369.41 154.059C369.494 151.818 368.776 149.612 367.387 147.842L354.833 131.89L374.372 126.363C376.533 125.75 378.412 124.384 379.661 122.518L390.956 105.648L402.25 122.516C403.5 124.383 405.379 125.749 407.544 126.364L427.079 131.89L414.522 147.847Z" fill="#7B1C73"/>
</g>
<defs>
<clipPath id="clip0">
<rect width="512" height="512" fill="white"/>
</clipPath>
</defs>
</svg>
