<svg width="171" height="200" viewBox="0 0 171 200" fill="none" xmlns="http://www.w3.org/2000/svg">
<g clip-path="url(#clip0)">
<path d="M84.6732 52.313C81.1134 52.313 77.749 53.5465 75.0003 55.8265C72.2527 53.5471 68.8886 52.313 65.3277 52.313C56.6618 52.313 49.6111 59.7642 49.6111 68.9223C49.6111 82.2467 57.2867 88.8089 70.5475 95.6425C71.1724 95.9642 72.9362 96.9495 73.5629 97.3023C74.0088 97.5531 74.5042 97.6785 74.9994 97.6785C75.4942 97.6785 75.9894 97.5531 76.435 97.3026C77.0623 96.9501 78.8272 95.9645 79.4548 95.6413C92.7124 88.8087 100.388 82.2461 100.388 68.9223C100.388 59.7639 93.3388 52.313 84.6732 52.313ZM76.7728 90.4318C76.3717 90.6384 75.6554 91.0309 75.0003 91.3937C74.3463 91.0312 73.6303 90.6386 73.2301 90.433C59.7864 83.5051 55.4714 78.2782 55.4714 68.9223C55.4714 62.9949 59.8931 58.1727 65.3283 58.1727C67.9604 58.1727 70.4361 59.2931 72.3007 61.3299C72.993 62.0846 73.9772 62.5177 75.0008 62.5177H75.0038C76.0278 62.5171 77.0119 62.0829 77.7022 61.3282C79.5656 59.2934 82.0416 58.1724 84.6737 58.1724C90.108 58.1724 94.5292 62.9947 94.5292 68.922C94.5286 78.2779 90.2138 83.5048 76.7728 90.4318Z" fill="black"/>
<path d="M145.763 60.7224C145.396 58.039 144.017 55.6556 141.877 54.0011L129.178 43.1331V18.1919C129.178 16.574 127.866 15.262 126.248 15.262H113.378C111.76 15.262 110.448 16.574 110.448 18.1919V27.1036L81.3346 2.18672C81.2912 2.14951 81.2467 2.11376 81.2013 2.07919C77.5498 -0.692738 72.4495 -0.692738 68.7981 2.07919C68.7527 2.11376 68.7081 2.14951 68.6648 2.18672L8.12209 54.0011C5.98183 55.6556 4.60305 58.039 4.23564 60.7224C3.86385 63.4369 4.5714 66.1336 6.22823 68.3151C7.88448 70.4973 10.2913 71.9039 13.0058 72.2757C13.4778 72.3405 13.9498 72.3724 14.4183 72.3724C16.137 72.3724 17.8134 71.942 19.3182 71.1149V147.07C19.3182 148.688 20.6302 150 22.2481 150H127.751C129.369 150 130.681 148.688 130.681 147.07V71.1149C132.182 71.9397 133.856 72.37 135.597 72.37C138.835 72.37 141.815 70.8919 143.771 68.3151C145.428 66.1336 146.135 63.4369 145.763 60.7224ZM116.308 21.1217H123.319V38.1181L116.308 32.1186V21.1217ZM62.5572 144.14V110.397H87.4421V144.14H62.5572ZM93.3018 144.14V107.468C93.3018 105.85 91.9899 104.538 90.372 104.538H59.6273C58.0095 104.538 56.6975 105.85 56.6975 107.468V144.14H25.1779V66.3366L74.9997 23.3177L124.821 66.3366V144.14H93.3018ZM139.104 64.7724C138.265 65.8772 136.987 66.5106 135.597 66.5106C134.659 66.5106 133.766 66.2182 133.008 65.6639L76.9143 17.2291C75.8145 16.2799 74.1849 16.2799 73.085 17.2291L16.991 65.6639C16.0672 66.3395 14.9384 66.6252 13.8007 66.4699C12.6373 66.3105 11.6057 65.7076 10.8955 64.7721C10.1853 63.8369 9.88205 62.6807 10.0411 61.5173C10.2005 60.3536 10.8035 59.322 11.739 58.6118C11.7844 58.5772 11.8289 58.5415 11.8723 58.5043L72.4012 6.70161C73.9423 5.57245 76.0574 5.57245 77.5982 6.70161L138.127 58.5043C138.17 58.5415 138.215 58.5772 138.26 58.6118C139.196 59.322 139.799 60.3536 139.958 61.5173C140.117 62.6807 139.814 63.8369 139.104 64.7724Z" fill="black"/>
</g>
<path d="M169.047 173.047H147.953V151.953C147.953 150.874 147.079 150 146 150C144.921 150 144.047 150.874 144.047 151.953V173.047H122.953C121.874 173.047 121 173.921 121 175C121 176.079 121.874 176.953 122.953 176.953H144.047V198.047C144.047 199.126 144.921 200 146 200C147.079 200 147.953 199.126 147.953 198.047V176.953H169.047C170.126 176.953 171 176.079 171 175C171 173.921 170.126 173.047 169.047 173.047Z" fill="#7B1C73"/>
<defs>
<clipPath id="clip0">
<rect width="150" height="150" fill="white"/>
</clipPath>
</defs>
</svg>
