<svg width="183" height="200" viewBox="0 0 183 200" fill="none" xmlns="http://www.w3.org/2000/svg">
<g clip-path="url(#clip0)">
<path d="M105.673 52.313C102.113 52.313 98.749 53.5465 96.0003 55.8265C93.2527 53.5471 89.8886 52.313 86.3277 52.313C77.6618 52.313 70.6111 59.7642 70.6111 68.9223C70.6111 82.2467 78.2867 88.8089 91.5475 95.6425C92.1724 95.9642 93.9362 96.9495 94.5629 97.3023C95.0088 97.5531 95.5042 97.6785 95.9994 97.6785C96.4942 97.6785 96.9894 97.5531 97.435 97.3026C98.0623 96.9501 99.8272 95.9645 100.455 95.6413C113.712 88.8087 121.388 82.2461 121.388 68.9223C121.388 59.7639 114.339 52.313 105.673 52.313ZM97.7728 90.4318C97.3717 90.6384 96.6554 91.0309 96.0003 91.3937C95.3463 91.0312 94.6303 90.6386 94.2301 90.433C80.7864 83.5051 76.4714 78.2782 76.4714 68.9223C76.4714 62.9949 80.8931 58.1727 86.3283 58.1727C88.9604 58.1727 91.4361 59.2931 93.3007 61.3299C93.993 62.0846 94.9772 62.5177 96.0008 62.5177H96.0038C97.0278 62.5171 98.0119 62.0829 98.7022 61.3282C100.566 59.2934 103.042 58.1724 105.674 58.1724C111.108 58.1724 115.529 62.9947 115.529 68.922C115.529 78.2779 111.214 83.5048 97.7728 90.4318Z" fill="black"/>
<path d="M166.763 60.7224C166.396 58.039 165.017 55.6556 162.877 54.0011L150.178 43.1331V18.1919C150.178 16.574 148.866 15.262 147.248 15.262H134.378C132.76 15.262 131.448 16.574 131.448 18.1919V27.1036L102.335 2.18672C102.291 2.14951 102.247 2.11376 102.201 2.07919C98.5498 -0.692738 93.4495 -0.692738 89.7981 2.07919C89.7527 2.11376 89.7081 2.14951 89.6648 2.18672L29.1221 54.0011C26.9818 55.6556 25.603 58.039 25.2356 60.7224C24.8638 63.4369 25.5714 66.1336 27.2282 68.3151C28.8845 70.4973 31.2913 71.9039 34.0058 72.2757C34.4778 72.3405 34.9498 72.3724 35.4183 72.3724C37.137 72.3724 38.8134 71.942 40.3182 71.1149V147.07C40.3182 148.688 41.6302 150 43.2481 150H148.751C150.369 150 151.681 148.688 151.681 147.07V71.1149C153.182 71.9397 154.856 72.37 156.597 72.37C159.835 72.37 162.815 70.8919 164.771 68.3151C166.428 66.1336 167.135 63.4369 166.763 60.7224ZM137.308 21.1217H144.319V38.1181L137.308 32.1186V21.1217ZM83.5572 144.14V110.397H108.442V144.14H83.5572ZM114.302 144.14V107.468C114.302 105.85 112.99 104.538 111.372 104.538H80.6273C79.0095 104.538 77.6975 105.85 77.6975 107.468V144.14H46.1779V66.3366L95.9997 23.3177L145.821 66.3366V144.14H114.302ZM160.104 64.7724C159.265 65.8772 157.987 66.5106 156.597 66.5106C155.659 66.5106 154.766 66.2182 154.008 65.6639L97.9143 17.2291C96.8145 16.2799 95.1849 16.2799 94.085 17.2291L37.991 65.6639C37.0672 66.3395 35.9384 66.6252 34.8007 66.4699C33.6373 66.3105 32.6057 65.7076 31.8955 64.7721C31.1853 63.8369 30.882 62.6807 31.0411 61.5173C31.2005 60.3536 31.8035 59.322 32.739 58.6118C32.7844 58.5772 32.8289 58.5415 32.8723 58.5043L93.4012 6.70161C94.9423 5.57245 97.0574 5.57245 98.5982 6.70161L159.127 58.5043C159.17 58.5415 159.215 58.5772 159.26 58.6118C160.196 59.322 160.799 60.3536 160.958 61.5173C161.117 62.6807 160.814 63.8369 160.104 64.7724Z" fill="black"/>
</g>
<g clip-path="url(#clip1)">
<path d="M179.148 181.41C178.46 181.41 177.903 181.967 177.903 182.655V193.711C177.9 195.774 176.229 197.445 174.167 197.447H139.226C137.164 197.445 135.493 195.774 135.491 193.711V161.261C135.493 159.199 137.164 157.528 139.226 157.525H150.283C150.971 157.525 151.528 156.968 151.528 156.28C151.528 155.593 150.971 155.035 150.283 155.035H139.226C135.789 155.039 133.004 157.824 133 161.261V193.712C133.004 197.149 135.789 199.934 139.226 199.938H174.167C177.604 199.934 180.389 197.149 180.393 193.712V182.655C180.393 181.967 179.836 181.41 179.148 181.41Z" fill="#7B1C73"/>
<path d="M179.9 151.831C177.712 149.642 174.164 149.642 171.975 151.831L149.759 174.047C149.607 174.199 149.497 174.388 149.439 174.595L146.518 185.143C146.398 185.575 146.52 186.038 146.837 186.356C147.155 186.673 147.618 186.795 148.05 186.675L158.597 183.753C158.805 183.696 158.993 183.586 159.146 183.434L181.361 161.217C183.546 159.027 183.546 155.482 181.361 153.292L179.9 151.831ZM152.472 174.856L170.654 156.674L176.518 162.538L158.336 180.72L152.472 174.856ZM151.301 177.207L155.986 181.892L149.506 183.688L151.301 177.207ZM179.6 159.456L178.28 160.777L172.415 154.912L173.736 153.592C174.952 152.376 176.923 152.376 178.139 153.592L179.6 155.053C180.814 156.27 180.814 158.24 179.6 159.456Z" fill="#7B1C73"/>
</g>
<g clip-path="url(#clip2)">
<path d="M31.8968 168.115C31.25 168.115 30.7258 168.639 30.7258 169.286V191.417C30.7258 192.064 31.25 192.588 31.8968 192.588C32.5436 192.588 33.0678 192.064 33.0678 191.417V169.286C33.0678 168.639 32.5436 168.115 31.8968 168.115Z" fill="#7B1C73"/>
<path d="M18.0794 168.115C17.4326 168.115 16.9084 168.639 16.9084 169.286V191.417C16.9084 192.064 17.4326 192.588 18.0794 192.588C18.7262 192.588 19.2504 192.064 19.2504 191.417V169.286C19.2504 168.639 18.7262 168.115 18.0794 168.115Z" fill="#7B1C73"/>
<path d="M8.0093 164.885V193.735C8.0093 195.44 8.63457 197.042 9.72686 198.191C10.8141 199.343 12.3272 199.997 13.9107 200H36.0656C37.6496 199.997 39.1627 199.343 40.2495 198.191C41.3418 197.042 41.967 195.44 41.967 193.735V164.885C44.1383 164.309 45.5453 162.211 45.2549 159.983C44.964 157.756 43.0662 156.089 40.8194 156.089H34.8242V154.625C34.8311 153.394 34.3444 152.212 33.473 151.343C32.6017 150.474 31.4179 149.99 30.187 150H19.7893C18.5584 149.99 17.3747 150.474 16.5033 151.343C15.632 152.212 15.1453 153.394 15.1521 154.625V156.089H9.15693C6.91016 156.089 5.01238 157.756 4.72147 159.983C4.43102 162.211 5.838 164.309 8.0093 164.885ZM36.0656 197.658H13.9107C11.9087 197.658 10.3512 195.938 10.3512 193.735V164.988H39.6251V193.735C39.6251 195.938 38.0677 197.658 36.0656 197.658ZM17.4941 154.625C17.4863 154.016 17.726 153.429 18.1587 152.998C18.5909 152.568 19.1791 152.331 19.7893 152.342H30.187C30.7972 152.331 31.3854 152.568 31.8177 152.998C32.2504 153.428 32.4901 154.016 32.4823 154.625V156.089H17.4941V154.625ZM9.15693 158.431H40.8194C41.9835 158.431 42.9271 159.375 42.9271 160.539C42.9271 161.703 41.9835 162.646 40.8194 162.646H9.15693C7.99283 162.646 7.04921 161.703 7.04921 160.539C7.04921 159.375 7.99283 158.431 9.15693 158.431Z" fill="#7B1C73"/>
<path d="M24.9881 168.115C24.3413 168.115 23.8171 168.639 23.8171 169.286V191.417C23.8171 192.064 24.3413 192.588 24.9881 192.588C25.6349 192.588 26.159 192.064 26.159 191.417V169.286C26.159 168.639 25.6349 168.115 24.9881 168.115Z" fill="#7B1C73"/>
</g>
<defs>
<clipPath id="clip0">
<rect width="150" height="150" fill="white" transform="translate(21)"/>
</clipPath>
<clipPath id="clip1">
<rect width="50" height="50" fill="white" transform="translate(133 150)"/>
</clipPath>
<clipPath id="clip2">
<rect width="50" height="50" fill="white" transform="translate(0 150)"/>
</clipPath>
</defs>
</svg>
