<svg width="192" height="200" viewBox="0 0 192 200" fill="none" xmlns="http://www.w3.org/2000/svg">
<g clip-path="url(#clip0)">
<path d="M105.673 52.313C102.113 52.313 98.749 53.5465 96.0003 55.8265C93.2527 53.5471 89.8886 52.313 86.3277 52.313C77.6618 52.313 70.6111 59.7642 70.6111 68.9223C70.6111 82.2467 78.2867 88.8089 91.5475 95.6425C92.1724 95.9642 93.9362 96.9495 94.5629 97.3023C95.0088 97.5531 95.5042 97.6785 95.9994 97.6785C96.4942 97.6785 96.9894 97.5531 97.435 97.3026C98.0623 96.9501 99.8272 95.9645 100.455 95.6413C113.712 88.8087 121.388 82.2461 121.388 68.9223C121.388 59.7639 114.339 52.313 105.673 52.313ZM97.7728 90.4318C97.3717 90.6384 96.6554 91.0309 96.0003 91.3937C95.3463 91.0312 94.6303 90.6386 94.2301 90.433C80.7864 83.5051 76.4714 78.2782 76.4714 68.9223C76.4714 62.9949 80.8931 58.1727 86.3283 58.1727C88.9604 58.1727 91.4361 59.2931 93.3007 61.3299C93.993 62.0846 94.9772 62.5177 96.0008 62.5177H96.0038C97.0278 62.5171 98.0119 62.0829 98.7022 61.3282C100.566 59.2934 103.042 58.1724 105.674 58.1724C111.108 58.1724 115.529 62.9947 115.529 68.922C115.529 78.2779 111.214 83.5048 97.7728 90.4318Z" fill="black"/>
<path d="M166.763 60.7224C166.396 58.039 165.017 55.6556 162.877 54.0011L150.178 43.1331V18.1919C150.178 16.574 148.866 15.262 147.248 15.262H134.378C132.76 15.262 131.448 16.574 131.448 18.1919V27.1036L102.335 2.18672C102.291 2.14951 102.247 2.11376 102.201 2.07919C98.5498 -0.692738 93.4495 -0.692738 89.7981 2.07919C89.7527 2.11376 89.7081 2.14951 89.6648 2.18672L29.1221 54.0011C26.9818 55.6556 25.603 58.039 25.2356 60.7224C24.8638 63.4369 25.5714 66.1336 27.2282 68.3151C28.8845 70.4973 31.2913 71.9039 34.0058 72.2757C34.4778 72.3405 34.9498 72.3724 35.4183 72.3724C37.137 72.3724 38.8134 71.942 40.3182 71.1149V147.07C40.3182 148.688 41.6302 150 43.2481 150H148.751C150.369 150 151.681 148.688 151.681 147.07V71.1149C153.182 71.9397 154.856 72.37 156.597 72.37C159.835 72.37 162.815 70.8919 164.771 68.3151C166.428 66.1336 167.135 63.4369 166.763 60.7224ZM137.308 21.1217H144.319V38.1181L137.308 32.1186V21.1217ZM83.5572 144.14V110.397H108.442V144.14H83.5572ZM114.302 144.14V107.468C114.302 105.85 112.99 104.538 111.372 104.538H80.6273C79.0095 104.538 77.6975 105.85 77.6975 107.468V144.14H46.1779V66.3366L95.9997 23.3177L145.821 66.3366V144.14H114.302ZM160.104 64.7724C159.265 65.8772 157.987 66.5106 156.597 66.5106C155.659 66.5106 154.766 66.2182 154.008 65.6639L97.9143 17.2291C96.8145 16.2799 95.1849 16.2799 94.085 17.2291L37.991 65.6639C37.0672 66.3395 35.9384 66.6252 34.8007 66.4699C33.6373 66.3105 32.6057 65.7076 31.8955 64.7721C31.1853 63.8369 30.882 62.6807 31.0411 61.5173C31.2005 60.3536 31.8035 59.322 32.739 58.6118C32.7844 58.5772 32.8289 58.5415 32.8723 58.5043L93.4012 6.70161C94.9423 5.57245 97.0574 5.57245 98.5982 6.70161L159.127 58.5043C159.17 58.5415 159.215 58.5772 159.26 58.6118C160.196 59.322 160.799 60.3536 160.958 61.5173C161.117 62.6807 160.814 63.8369 160.104 64.7724Z" fill="black"/>
</g>
<g clip-path="url(#clip1)">
<path d="M173.897 168.115C173.25 168.115 172.726 168.639 172.726 169.286V191.417C172.726 192.064 173.25 192.588 173.897 192.588C174.544 192.588 175.068 192.064 175.068 191.417V169.286C175.068 168.639 174.544 168.115 173.897 168.115Z" fill="#7B1C73"/>
<path d="M160.079 168.115C159.433 168.115 158.908 168.639 158.908 169.286V191.417C158.908 192.064 159.433 192.588 160.079 192.588C160.726 192.588 161.25 192.064 161.25 191.417V169.286C161.25 168.639 160.726 168.115 160.079 168.115Z" fill="#7B1C73"/>
<path d="M150.009 164.885V193.735C150.009 195.44 150.635 197.042 151.727 198.191C152.814 199.343 154.327 199.997 155.911 200H178.066C179.65 199.997 181.163 199.343 182.249 198.191C183.342 197.042 183.967 195.44 183.967 193.735V164.885C186.138 164.309 187.545 162.211 187.255 159.983C186.964 157.756 185.066 156.089 182.819 156.089H176.824V154.625C176.831 153.394 176.344 152.212 175.473 151.343C174.602 150.474 173.418 149.99 172.187 150H161.789C160.558 149.99 159.375 150.474 158.503 151.343C157.632 152.212 157.145 153.394 157.152 154.625V156.089H151.157C148.91 156.089 147.012 157.756 146.721 159.983C146.431 162.211 147.838 164.309 150.009 164.885ZM178.066 197.658H155.911C153.909 197.658 152.351 195.938 152.351 193.735V164.988H181.625V193.735C181.625 195.938 180.068 197.658 178.066 197.658ZM159.494 154.625C159.486 154.016 159.726 153.429 160.159 152.998C160.591 152.568 161.179 152.331 161.789 152.342H172.187C172.797 152.331 173.385 152.568 173.818 152.998C174.25 153.428 174.49 154.016 174.482 154.625V156.089H159.494V154.625ZM151.157 158.431H182.819C183.984 158.431 184.927 159.375 184.927 160.539C184.927 161.703 183.984 162.646 182.819 162.646H151.157C149.993 162.646 149.049 161.703 149.049 160.539C149.049 159.375 149.993 158.431 151.157 158.431Z" fill="#7B1C73"/>
<path d="M166.988 168.115C166.341 168.115 165.817 168.639 165.817 169.286V191.417C165.817 192.064 166.341 192.588 166.988 192.588C167.635 192.588 168.159 192.064 168.159 191.417V169.286C168.159 168.639 167.635 168.115 166.988 168.115Z" fill="#7B1C73"/>
</g>
<g clip-path="url(#clip2)">
<path d="M46.148 181.41C45.4602 181.41 44.9028 181.967 44.9028 182.655V193.711C44.9003 195.774 43.2295 197.445 41.167 197.447H6.2263C4.16383 197.445 2.49295 195.774 2.49052 193.711V161.261C2.49295 159.199 4.16383 157.528 6.2263 157.525H17.2828C17.9706 157.525 18.5281 156.968 18.5281 156.28C18.5281 155.593 17.9706 155.035 17.2828 155.035H6.2263C2.78919 155.039 0.00389143 157.824 0 161.261V193.712C0.00389143 197.149 2.78919 199.934 6.2263 199.938H41.167C44.6041 199.934 47.3894 197.149 47.3933 193.712V182.655C47.3933 181.967 46.8358 181.41 46.148 181.41V181.41Z" fill="#7B1C73"/>
<path d="M46.9 151.831C44.7116 149.642 41.1636 149.642 38.9751 151.831L16.7589 174.047C16.6067 174.199 16.4967 174.388 16.4393 174.595L13.5179 185.143C13.3977 185.575 13.5198 186.038 13.837 186.356C14.1546 186.673 14.6177 186.795 15.0501 186.675L25.5974 183.753C25.8046 183.696 25.9933 183.586 26.1456 183.434L48.3613 161.217C50.5463 159.027 50.5463 155.482 48.3613 153.292L46.9 151.831ZM19.4722 174.856L37.6545 156.674L43.5184 162.538L25.3357 180.72L19.4722 174.856ZM18.3009 177.207L22.9857 181.892L16.5055 183.688L18.3009 177.207ZM46.6004 159.456L45.2797 160.777L39.4154 154.912L40.7365 153.592C41.9521 152.376 43.9231 152.376 45.1387 153.592L46.6004 155.053C47.814 156.27 47.814 158.24 46.6004 159.456V159.456Z" fill="#7B1C73"/>
</g>
<defs>
<clipPath id="clip0">
<rect width="150" height="150" fill="white" transform="translate(21)"/>
</clipPath>
<clipPath id="clip1">
<rect width="50" height="50" fill="white" transform="translate(142 150)"/>
</clipPath>
<clipPath id="clip2">
<rect width="50" height="50" fill="white" transform="translate(0 150)"/>
</clipPath>
</defs>
</svg>
