<svg id="Layer_1" enable-background="new 0 0 512.082 512.082" height="512" viewBox="0 0 512.082 512.082" width="512" xmlns="http://www.w3.org/2000/svg"><path d="m480.054 192c0-8.156-6.24-15.22-14.628-15.931-.281-.024-417.745-.413-421.08.38-6.339 1.503-11.415 6.862-12.186 13.759-.142 1.268-.271 306.034.13 308.438 1.085 6.504 6.026 11.537 12.208 12.944 2.766.628 420.015.661 422.854.066 6.695-1.406 11.824-6.972 12.594-13.864.151-1.343.108 15.64.108-305.792zm-416 35.126 134.343 116.874-134.343 116.874zm192 124.619-165.231-143.745h330.462zm-33.28 13.462 22.778 19.816c6.021 5.238 14.981 5.238 21.003 0l22.778-19.816 131.952 114.793h-330.462zm90.937-21.207 134.343-116.874v233.747z"/><path d="m244.428 155.261c6.823 6.823 18.652 6.258 24.591-1.964l46.294-46.294c6.249-6.248 6.249-16.379 0-22.627-6.248-6.248-16.379-6.248-22.627 0l-20.633 20.633v-89.009c0-8.836-7.164-16-16-16s-16 7.164-16 16v89.632l-20.631-20.632c-6.25-6.248-16.38-6.249-22.627 0-6.249 6.249-6.249 16.379 0 22.627z"/></svg>