<svg width="171" height="200" viewBox="0 0 171 200" fill="none" xmlns="http://www.w3.org/2000/svg">
<g clip-path="url(#clip0)">
<path d="M84.6732 52.313C81.1134 52.313 77.749 53.5465 75.0003 55.8265C72.2527 53.5471 68.8886 52.313 65.3277 52.313C56.6618 52.313 49.6111 59.7642 49.6111 68.9223C49.6111 82.2467 57.2867 88.8089 70.5475 95.6425C71.1724 95.9642 72.9362 96.9495 73.5629 97.3023C74.0088 97.5531 74.5042 97.6785 74.9994 97.6785C75.4942 97.6785 75.9894 97.5531 76.435 97.3026C77.0623 96.9501 78.8272 95.9645 79.4548 95.6413C92.7124 88.8087 100.388 82.2461 100.388 68.9223C100.388 59.7639 93.3388 52.313 84.6732 52.313ZM76.7728 90.4318C76.3717 90.6384 75.6554 91.0309 75.0003 91.3937C74.3463 91.0312 73.6303 90.6386 73.2301 90.433C59.7864 83.5051 55.4714 78.2782 55.4714 68.9223C55.4714 62.9949 59.8931 58.1727 65.3283 58.1727C67.9604 58.1727 70.4361 59.2931 72.3007 61.3299C72.993 62.0846 73.9772 62.5177 75.0008 62.5177H75.0038C76.0278 62.5171 77.0119 62.0829 77.7022 61.3282C79.5656 59.2934 82.0416 58.1724 84.6737 58.1724C90.108 58.1724 94.5292 62.9947 94.5292 68.922C94.5286 78.2779 90.2138 83.5048 76.7728 90.4318Z" fill="black"/>
<path d="M145.763 60.7224C145.396 58.039 144.017 55.6556 141.877 54.0011L129.178 43.1331V18.1919C129.178 16.574 127.866 15.262 126.248 15.262H113.378C111.76 15.262 110.448 16.574 110.448 18.1919V27.1036L81.3346 2.18672C81.2912 2.14951 81.2467 2.11376 81.2013 2.07919C77.5498 -0.692738 72.4495 -0.692738 68.7981 2.07919C68.7527 2.11376 68.7081 2.14951 68.6648 2.18672L8.12209 54.0011C5.98183 55.6556 4.60305 58.039 4.23564 60.7224C3.86385 63.4369 4.5714 66.1336 6.22823 68.3151C7.88448 70.4973 10.2913 71.9039 13.0058 72.2757C13.4778 72.3405 13.9498 72.3724 14.4183 72.3724C16.137 72.3724 17.8134 71.942 19.3182 71.1149V147.07C19.3182 148.688 20.6302 150 22.2481 150H127.751C129.369 150 130.681 148.688 130.681 147.07V71.1149C132.182 71.9397 133.856 72.37 135.597 72.37C138.835 72.37 141.815 70.8919 143.771 68.3151C145.428 66.1336 146.135 63.4369 145.763 60.7224ZM116.308 21.1217H123.319V38.1181L116.308 32.1186V21.1217ZM62.5572 144.14V110.397H87.4421V144.14H62.5572ZM93.3018 144.14V107.468C93.3018 105.85 91.9899 104.538 90.372 104.538H59.6273C58.0095 104.538 56.6975 105.85 56.6975 107.468V144.14H25.1779V66.3366L74.9997 23.3177L124.821 66.3366V144.14H93.3018ZM139.104 64.7724C138.265 65.8772 136.987 66.5106 135.597 66.5106C134.659 66.5106 133.766 66.2182 133.008 65.6639L76.9143 17.2291C75.8145 16.2799 74.1849 16.2799 73.085 17.2291L16.991 65.6639C16.0672 66.3395 14.9384 66.6252 13.8007 66.4699C12.6373 66.3105 11.6057 65.7076 10.8955 64.7721C10.1853 63.8369 9.88205 62.6807 10.0411 61.5173C10.2005 60.3536 10.8035 59.322 11.739 58.6118C11.7844 58.5772 11.8289 58.5415 11.8723 58.5043L72.4012 6.70161C73.9423 5.57245 76.0574 5.57245 77.5982 6.70161L138.127 58.5043C138.17 58.5415 138.215 58.5772 138.26 58.6118C139.196 59.322 139.799 60.3536 139.958 61.5173C140.117 62.6807 139.814 63.8369 139.104 64.7724Z" fill="black"/>
</g>
<g clip-path="url(#clip1)">
<path d="M130.282 168.66L131.384 171.649C131.425 171.762 131.533 171.836 131.652 171.836C131.772 171.836 131.879 171.762 131.921 171.649L133.023 168.66C133.916 166.24 135.823 164.332 138.243 163.44L141.232 162.338C141.344 162.296 141.419 162.189 141.419 162.069C141.419 161.95 141.344 161.842 141.232 161.801L138.243 160.698C135.823 159.806 133.915 157.899 133.023 155.479L131.921 152.49C131.879 152.377 131.772 152.303 131.652 152.303C131.533 152.303 131.425 152.377 131.384 152.49L130.282 155.479C129.389 157.899 127.482 159.806 125.062 160.698L122.072 161.801C121.96 161.842 121.885 161.95 121.885 162.069C121.885 162.189 121.96 162.296 122.072 162.338L125.062 163.44C127.482 164.332 129.389 166.24 130.282 168.66Z" fill="#7B1C73"/>
<path d="M154.517 181.285L151.528 180.183C149.108 179.291 147.2 177.383 146.308 174.964L145.206 171.974C145.164 171.862 145.057 171.787 144.937 171.787C144.818 171.787 144.71 171.862 144.669 171.974L143.567 174.963C142.674 177.383 140.767 179.291 138.347 180.183L135.358 181.285C135.245 181.327 135.171 181.434 135.171 181.554C135.171 181.674 135.245 181.781 135.358 181.822L138.347 182.925C140.767 183.817 142.674 185.725 143.567 188.144L144.669 191.134C144.71 191.246 144.818 191.321 144.937 191.321C145.057 191.321 145.164 191.246 145.206 191.134L146.308 188.144C147.201 185.725 149.108 183.817 151.528 182.925L154.517 181.822C154.629 181.781 154.704 181.674 154.704 181.554C154.704 181.434 154.629 181.327 154.517 181.285Z" fill="#7B1C73"/>
<path d="M169.987 168.5L167.956 167.751C166.311 167.144 165.015 165.848 164.409 164.203L163.659 162.172C163.631 162.096 163.558 162.045 163.477 162.045C163.396 162.045 163.323 162.096 163.294 162.172L162.545 164.203C161.939 165.848 160.643 167.144 158.998 167.751L156.967 168.5C156.89 168.528 156.839 168.601 156.839 168.682C156.839 168.764 156.89 168.836 156.967 168.865L158.998 169.614C160.643 170.22 161.939 171.517 162.545 173.161L163.294 175.193C163.323 175.269 163.396 175.32 163.477 175.32C163.558 175.32 163.631 175.269 163.659 175.193L164.409 173.161C165.015 171.516 166.311 170.22 167.956 169.614L169.987 168.865C170.064 168.836 170.115 168.764 170.115 168.682C170.115 168.601 170.064 168.528 169.987 168.5Z" fill="#7B1C73"/>
<path d="M165.066 195.243L163.649 194.72C162.502 194.297 161.598 193.393 161.175 192.246L160.652 190.829C160.632 190.776 160.581 190.741 160.525 190.741C160.468 190.741 160.417 190.776 160.397 190.829L159.875 192.246C159.452 193.393 158.547 194.297 157.401 194.72L155.983 195.243C155.93 195.262 155.895 195.313 155.895 195.37C155.895 195.427 155.93 195.478 155.983 195.497L157.4 196.02C158.548 196.443 159.452 197.347 159.875 198.495L160.398 199.912C160.417 199.965 160.468 200 160.525 200C160.582 200 160.632 199.965 160.652 199.912L161.175 198.495C161.598 197.347 162.502 196.443 163.649 196.02L165.066 195.497C165.119 195.478 165.155 195.427 165.155 195.37C165.155 195.313 165.119 195.262 165.066 195.243Z" fill="#7B1C73"/>
<path d="M154.615 154.503L153.198 153.98C152.051 153.557 151.147 152.653 150.724 151.506L150.201 150.089C150.182 150.035 150.131 150 150.074 150C150.017 150 149.966 150.035 149.947 150.089L149.424 151.505C149.001 152.652 148.097 153.557 146.95 153.98L145.533 154.502C145.479 154.522 145.444 154.573 145.444 154.63C145.444 154.686 145.479 154.737 145.533 154.757L146.95 155.28C148.097 155.703 149.001 156.607 149.424 157.754L149.947 159.171C149.966 159.224 150.017 159.26 150.074 159.26C150.131 159.26 150.182 159.224 150.201 159.171L150.724 157.754C151.147 156.607 152.051 155.703 153.199 155.28L154.616 154.757C154.669 154.737 154.704 154.686 154.704 154.63C154.704 154.573 154.669 154.522 154.615 154.503Z" fill="#7B1C73"/>
<path d="M137.234 192.33L135.451 191.673C134.009 191.141 132.871 190.003 132.339 188.56L131.682 186.778C131.657 186.711 131.593 186.666 131.522 186.666C131.45 186.666 131.386 186.711 131.361 186.778L130.704 188.56C130.172 190.003 129.035 191.141 127.592 191.673L125.81 192.33C125.742 192.354 125.698 192.418 125.698 192.49C125.698 192.561 125.742 192.625 125.81 192.65L127.592 193.307C129.035 193.839 130.172 194.977 130.704 196.42L131.361 198.202C131.386 198.269 131.45 198.314 131.522 198.314C131.593 198.314 131.657 198.269 131.682 198.202L132.339 196.42C132.871 194.977 134.008 193.839 135.451 193.307L137.234 192.65C137.301 192.625 137.345 192.561 137.345 192.49C137.345 192.418 137.301 192.354 137.234 192.33Z" fill="#7B1C73"/>
</g>
<defs>
<clipPath id="clip0">
<rect width="150" height="150" fill="white"/>
</clipPath>
<clipPath id="clip1">
<rect width="50" height="50" fill="white" transform="translate(121 150)"/>
</clipPath>
</defs>
</svg>
