<svg width="192" height="200" viewBox="0 0 192 200" fill="none" xmlns="http://www.w3.org/2000/svg">
<g clip-path="url(#clip0)">
<path d="M105.673 52.313C102.113 52.313 98.749 53.5465 96.0003 55.8265C93.2527 53.5471 89.8886 52.313 86.3277 52.313C77.6618 52.313 70.6111 59.7642 70.6111 68.9223C70.6111 82.2467 78.2867 88.8089 91.5475 95.6425C92.1724 95.9642 93.9362 96.9495 94.5629 97.3023C95.0088 97.5531 95.5042 97.6785 95.9994 97.6785C96.4942 97.6785 96.9894 97.5531 97.435 97.3026C98.0623 96.9501 99.8272 95.9645 100.455 95.6413C113.712 88.8087 121.388 82.2461 121.388 68.9223C121.388 59.7639 114.339 52.313 105.673 52.313ZM97.7728 90.4318C97.3717 90.6384 96.6554 91.0309 96.0003 91.3937C95.3463 91.0312 94.6303 90.6386 94.2301 90.433C80.7864 83.5051 76.4714 78.2782 76.4714 68.9223C76.4714 62.9949 80.8931 58.1727 86.3283 58.1727C88.9604 58.1727 91.4361 59.2931 93.3007 61.3299C93.993 62.0846 94.9772 62.5177 96.0008 62.5177H96.0038C97.0278 62.5171 98.0119 62.0829 98.7022 61.3282C100.566 59.2934 103.042 58.1724 105.674 58.1724C111.108 58.1724 115.529 62.9947 115.529 68.922C115.529 78.2779 111.214 83.5048 97.7728 90.4318Z" fill="black"/>
<path d="M166.763 60.7224C166.396 58.039 165.017 55.6556 162.877 54.0011L150.178 43.1331V18.1919C150.178 16.574 148.866 15.262 147.248 15.262H134.378C132.76 15.262 131.448 16.574 131.448 18.1919V27.1036L102.335 2.18672C102.291 2.14951 102.247 2.11376 102.201 2.07919C98.5498 -0.692738 93.4495 -0.692738 89.7981 2.07919C89.7527 2.11376 89.7081 2.14951 89.6648 2.18672L29.1221 54.0011C26.9818 55.6556 25.603 58.039 25.2356 60.7224C24.8638 63.4369 25.5714 66.1336 27.2282 68.3151C28.8845 70.4973 31.2913 71.9039 34.0058 72.2757C34.4778 72.3405 34.9498 72.3724 35.4183 72.3724C37.137 72.3724 38.8134 71.942 40.3182 71.1149V147.07C40.3182 148.688 41.6302 150 43.2481 150H148.751C150.369 150 151.681 148.688 151.681 147.07V71.1149C153.182 71.9397 154.856 72.37 156.597 72.37C159.835 72.37 162.815 70.8919 164.771 68.3151C166.428 66.1336 167.135 63.4369 166.763 60.7224ZM137.308 21.1217H144.319V38.1181L137.308 32.1186V21.1217ZM83.5572 144.14V110.397H108.442V144.14H83.5572ZM114.302 144.14V107.468C114.302 105.85 112.99 104.538 111.372 104.538H80.6273C79.0095 104.538 77.6975 105.85 77.6975 107.468V144.14H46.1779V66.3366L95.9997 23.3177L145.821 66.3366V144.14H114.302ZM160.104 64.7724C159.265 65.8772 157.987 66.5106 156.597 66.5106C155.659 66.5106 154.766 66.2182 154.008 65.6639L97.9143 17.2291C96.8145 16.2799 95.1849 16.2799 94.085 17.2291L37.991 65.6639C37.0672 66.3395 35.9384 66.6252 34.8007 66.4699C33.6373 66.3105 32.6057 65.7076 31.8955 64.7721C31.1853 63.8369 30.882 62.6807 31.0411 61.5173C31.2005 60.3536 31.8035 59.322 32.739 58.6118C32.7844 58.5772 32.8289 58.5415 32.8723 58.5043L93.4012 6.70161C94.9423 5.57245 97.0574 5.57245 98.5982 6.70161L159.127 58.5043C159.17 58.5415 159.215 58.5772 159.26 58.6118C160.196 59.322 160.799 60.3536 160.958 61.5173C161.117 62.6807 160.814 63.8369 160.104 64.7724Z" fill="black"/>
</g>
<path d="M49.6822 174.028C49.2355 173.416 38.5927 159.066 24.9998 159.066C11.4069 159.066 0.763478 173.416 0.317286 174.027C-0.105762 174.607 -0.105762 175.393 0.317286 175.973C0.763478 176.584 11.4069 190.934 24.9998 190.934C38.5927 190.934 49.2355 176.583 49.6822 175.973C50.1059 175.393 50.1059 174.607 49.6822 174.028ZM24.9998 187.637C14.9871 187.637 6.31515 178.113 3.74805 174.999C6.31183 171.882 14.9657 162.363 24.9998 162.363C35.0119 162.363 43.6833 171.886 46.2515 175.001C43.6877 178.118 35.0339 187.637 24.9998 187.637Z" fill="#7B1C73"/>
<path d="M24.9998 165.11C19.5464 165.11 15.1096 169.547 15.1096 175C15.1096 180.453 19.5464 184.89 24.9998 184.89C30.4531 184.89 34.8899 180.453 34.8899 175C34.8899 169.547 30.4531 165.11 24.9998 165.11ZM24.9998 181.593C21.364 181.593 18.4064 178.636 18.4064 175C18.4064 171.364 21.3641 168.407 24.9998 168.407C28.6354 168.407 31.5931 171.364 31.5931 175C31.5931 178.636 28.6355 181.593 24.9998 181.593Z" fill="#7B1C73"/>
<g clip-path="url(#clip1)">
<path d="M191.659 173.95C188.624 169.974 184.979 166.503 180.859 163.666L187.905 156.62C188.615 155.935 188.634 154.804 187.949 154.095C187.264 153.386 186.134 153.366 185.424 154.051C185.41 154.065 185.395 154.08 185.38 154.095L177.682 161.786C174.406 159.983 170.74 159.002 167 158.929C153.429 158.929 142.788 173.336 142.342 173.95C141.886 174.576 141.886 175.424 142.342 176.05C145.376 180.026 149.021 183.497 153.141 186.334L146.095 193.38C145.386 194.065 145.366 195.196 146.051 195.905C146.736 196.614 147.867 196.634 148.576 195.949C148.591 195.935 148.606 195.92 148.62 195.905L156.318 188.214C159.595 190.017 163.261 190.998 167 191.071C180.571 191.071 191.212 176.664 191.659 176.05C192.114 175.424 192.114 174.576 191.659 173.95ZM155.738 183.743C152.1 181.32 148.839 178.374 146.061 175C148.69 171.816 157.215 162.5 167 162.5C169.784 162.556 172.522 163.227 175.016 164.464L171.916 167.564C167.815 164.841 162.282 165.959 159.559 170.06C157.576 173.048 157.576 176.934 159.559 179.921L155.738 183.743ZM171.822 172.705C172.171 173.42 172.354 174.205 172.357 175C172.357 177.959 169.959 180.357 167 180.357C166.205 180.354 165.42 180.171 164.706 179.821L171.822 172.705ZM162.179 177.295C161.829 176.58 161.646 175.795 161.643 175C161.643 172.041 164.042 169.643 167 169.643C167.796 169.646 168.58 169.829 169.295 170.179L162.179 177.295ZM167 187.5C164.216 187.444 161.479 186.773 158.984 185.536L162.084 182.436C166.186 185.159 171.718 184.041 174.441 179.94C176.425 176.952 176.425 173.066 174.441 170.079L178.263 166.257C181.9 168.68 185.161 171.626 187.939 175C185.311 178.184 176.786 187.5 167 187.5Z" fill="#7B1C73"/>
</g>
<defs>
<clipPath id="clip0">
<rect width="150" height="150" fill="white" transform="translate(21)"/>
</clipPath>
<clipPath id="clip1">
<rect width="50" height="50" fill="white" transform="translate(142 150)"/>
</clipPath>
</defs>
</svg>
