<svg id="Online_Healthcare" height="512" viewBox="0 0 64 64" width="512" xmlns="http://www.w3.org/2000/svg" data-name="Online Healthcare"><path d="m61 2h-58a1 1 0 0 0 -1 1v58a1 1 0 0 0 1 1h58a1 1 0 0 0 1-1v-58a1 1 0 0 0 -1-1zm-1 58h-56v-48h56zm0-50h-56v-6h56z"/><path d="m23 17h-12a5 5 0 0 0 0 10h12a5 5 0 0 0 0-10zm-7 8h-5a3 3 0 0 1 0-6h5zm7 0h-5v-6h5a3 3 0 0 1 0 6z"/><path d="m6 6h2v2h-2z"/><path d="m10 6h2v2h-2z"/><path d="m14 6h2v2h-2z"/><path d="m32 19h4v2h-4z"/><path d="m38 19h17v2h-17z"/><path d="m32 23h6v2h-6z"/><path d="m40 23h15v2h-15z"/><path d="m32 38h4v2h-4z"/><path d="m38 38h17v2h-17z"/><path d="m32 42h6v2h-6z"/><path d="m40 44h1l-.692 10.729a1 1 0 0 0 1.5.931l1.732-1 1.5 2.6a1.007 1.007 0 0 0 .608.466 1.027 1.027 0 0 0 .258.034 1 1 0 0 0 .5-.134l5.2-3a1 1 0 0 0 .366-1.366l-1.5-2.6 1.732-1a1 1 0 0 0 -.064-1.76l-7.883-3.9h10.743v-2h-15zm8.231 6.794 1.5 2.6-3.462 2-1.5-2.6a1 1 0 0 0 -1.367-.366l-.98.566.479-7.432 6.677 3.3-.98.566a1 1 0 0 0 -.367 1.366z"/><path d="m17 32a9 9 0 1 0 9 9 9.014 9.014 0 0 0 -9-9zm0 2a7.013 7.013 0 0 1 6.93 6h-13.86a7.013 7.013 0 0 1 6.93-6zm0 14a7.013 7.013 0 0 1 -6.93-6h13.86a7.013 7.013 0 0 1 -6.93 6z"/></svg>